<svg width="135" height="40" viewBox="0 0 135 40" fill="none" xmlns="http://www.w3.org/2000/svg">
<rect x="0.5" y="0.5" width="134" height="39" rx="6.5" stroke="white"/>
<path d="M81.5267 19.2009V21.4919H80.0906V22.9943H81.5267V28.0993C81.5267 29.8425 82.3152 30.5397 84.2991 30.5397C84.6478 30.5397 84.9798 30.4982 85.2703 30.4484V28.9626C85.0213 28.9875 84.8636 29.0041 84.5896 29.0041C83.7015 29.0041 83.3113 28.589 83.3113 27.6428V22.9943H85.2703V21.4919H83.3113V19.2009H81.5267Z" fill="white"/>
<path d="M90.3242 30.6642C92.9638 30.6642 94.5825 28.8962 94.5825 25.966C94.5825 23.0524 92.9555 21.2761 90.3242 21.2761C87.6845 21.2761 86.0576 23.0524 86.0576 25.966C86.0576 28.8962 87.6762 30.6642 90.3242 30.6642ZM90.3242 29.0788C88.7719 29.0788 87.9003 27.9416 87.9003 25.966C87.9003 24.007 88.7719 22.8615 90.3242 22.8615C91.8681 22.8615 92.748 24.007 92.748 25.966C92.748 27.9333 91.8681 29.0788 90.3242 29.0788Z" fill="white"/>
<path d="M95.9674 30.4899H97.752V25.1525C97.752 23.8825 98.7066 23.0275 100.06 23.0275C100.375 23.0275 100.906 23.0856 101.056 23.1354V21.3757C100.865 21.3259 100.524 21.301 100.259 21.301C99.0802 21.301 98.0758 21.9484 97.8184 22.8366H97.6856V21.4504H95.9674V30.4899Z" fill="white"/>
<path d="M105.487 22.7951C106.807 22.7951 107.67 23.7165 107.712 25.1359H103.146C103.246 23.7248 104.167 22.7951 105.487 22.7951ZM107.703 28.0495C107.371 28.7551 106.633 29.1452 105.553 29.1452C104.126 29.1452 103.204 28.1408 103.146 26.5554V26.4557H109.53V25.8332C109.53 22.9943 108.01 21.2761 105.495 21.2761C102.947 21.2761 101.328 23.1105 101.328 25.9992C101.328 28.8879 102.914 30.6642 105.504 30.6642C107.571 30.6642 109.015 29.6681 109.422 28.0495H107.703Z" fill="white"/>
<path d="M69.8231 27.1518C69.9607 29.3715 71.8105 30.791 74.5636 30.791C77.506 30.791 79.3472 29.3026 79.3472 26.9281C79.3472 25.0611 78.2975 24.0287 75.7509 23.435L74.3829 23.0995C72.7655 22.7209 72.1116 22.2133 72.1116 21.3272C72.1116 20.2087 73.1268 19.4774 74.6497 19.4774C76.095 19.4774 77.093 20.1915 77.2737 21.3358H79.1493C79.0374 19.2451 77.1963 17.7739 74.6755 17.7739C71.9654 17.7739 70.1586 19.2451 70.1586 21.4562C70.1586 23.2802 71.1824 24.3642 73.4279 24.889L75.0282 25.2762C76.6715 25.6634 77.3942 26.2312 77.3942 27.1776C77.3942 28.2788 76.2585 29.0789 74.7099 29.0789C73.0494 29.0789 71.8965 28.3304 71.7331 27.1518H69.8231Z" fill="white"/>
<path d="M51.3357 21.301C50.1072 21.301 49.0447 21.9152 48.4969 22.9445H48.3641V21.4504H46.6458V33.4948H48.4305V29.1203H48.5716C49.0447 30.0749 50.0657 30.6393 51.3523 30.6393C53.6351 30.6393 55.0877 28.8381 55.0877 25.966C55.0877 23.0939 53.6351 21.301 51.3357 21.301ZM50.8294 29.0373C49.3353 29.0373 48.3973 27.8586 48.3973 25.9743C48.3973 24.0817 49.3353 22.903 50.8377 22.903C52.3484 22.903 53.2532 24.0568 53.2532 25.966C53.2532 27.8835 52.3484 29.0373 50.8294 29.0373Z" fill="white"/>
<path d="M61.3325 21.301C60.104 21.301 59.0415 21.9152 58.4937 22.9445H58.3609V21.4504H56.6426V33.4948H58.4273V29.1203H58.5684C59.0415 30.0749 60.0625 30.6393 61.3491 30.6393C63.6319 30.6393 65.0845 28.8381 65.0845 25.966C65.0845 23.0939 63.6319 21.301 61.3325 21.301ZM60.8262 29.0373C59.3321 29.0373 58.3941 27.8586 58.3941 25.9743C58.3941 24.0817 59.3321 22.903 60.8345 22.903C62.3452 22.903 63.25 24.0568 63.25 25.966C63.25 27.8835 62.3452 29.0373 60.8262 29.0373Z" fill="white"/>
<path d="M43.4438 30.4899H45.4914L41.009 18.075H38.9356L34.4531 30.4899H36.4319L37.5762 27.1948H42.3081L43.4438 30.4899ZM39.8733 20.3292H40.0196L41.8177 25.5773H38.0666L39.8733 20.3292Z" fill="white"/>
<path d="M35.6504 8.71094V14.7H37.8127C39.5974 14.7 40.6309 13.6001 40.6309 11.6868C40.6309 9.80249 39.5891 8.71094 37.8127 8.71094H35.6504ZM36.5801 9.55762H37.709C38.95 9.55762 39.6846 10.3462 39.6846 11.6992C39.6846 13.073 38.9624 13.8533 37.709 13.8533H36.5801V9.55762Z" fill="white"/>
<path d="M43.7959 14.7871C45.1158 14.7871 45.9251 13.9031 45.9251 12.438C45.9251 10.9812 45.1116 10.093 43.7959 10.093C42.4761 10.093 41.6626 10.9812 41.6626 12.438C41.6626 13.9031 42.472 14.7871 43.7959 14.7871ZM43.7959 13.9944C43.0198 13.9944 42.584 13.4258 42.584 12.438C42.584 11.4585 43.0198 10.8857 43.7959 10.8857C44.5679 10.8857 45.0079 11.4585 45.0079 12.438C45.0079 13.4216 44.5679 13.9944 43.7959 13.9944Z" fill="white"/>
<path d="M52.8172 10.1802H51.9249L51.1197 13.6292H51.0492L50.1195 10.1802H49.2645L48.3348 13.6292H48.2684L47.4591 10.1802H46.5543L47.7994 14.7H48.7167L49.6463 11.3713H49.7169L50.6507 14.7H51.5763L52.8172 10.1802Z" fill="white"/>
<path d="M53.8449 14.7H54.7372V12.0562C54.7372 11.3506 55.1564 10.9106 55.8163 10.9106C56.4762 10.9106 56.7916 11.2717 56.7916 11.998V14.7H57.684V11.7739C57.684 10.699 57.1278 10.093 56.1193 10.093C55.4386 10.093 54.9904 10.396 54.7704 10.8982H54.704V10.1802H53.8449V14.7Z" fill="white"/>
<path d="M59.0893 14.7H59.9816V8.41626H59.0893V14.7Z" fill="white"/>
<path d="M63.3376 14.7871C64.6575 14.7871 65.4668 13.9031 65.4668 12.438C65.4668 10.9812 64.6533 10.093 63.3376 10.093C62.0178 10.093 61.2043 10.9812 61.2043 12.438C61.2043 13.9031 62.0137 14.7871 63.3376 14.7871ZM63.3376 13.9944C62.5615 13.9944 62.1257 13.4258 62.1257 12.438C62.1257 11.4585 62.5615 10.8857 63.3376 10.8857C64.1096 10.8857 64.5496 11.4585 64.5496 12.438C64.5496 13.4216 64.1096 13.9944 63.3376 13.9944Z" fill="white"/>
<path d="M68.1255 14.0234C67.6399 14.0234 67.2872 13.7869 67.2872 13.3801C67.2872 12.9817 67.5694 12.77 68.1919 12.7285L69.2959 12.658V13.0356C69.2959 13.5959 68.7979 14.0234 68.1255 14.0234ZM67.8973 14.7747C68.4908 14.7747 68.9847 14.5173 69.2544 14.0649H69.325V14.7H70.1841V11.6121C70.1841 10.6575 69.545 10.093 68.4119 10.093C67.3868 10.093 66.6563 10.5911 66.565 11.3672H67.4283C67.5279 11.0476 67.8724 10.865 68.3704 10.865C68.9805 10.865 69.2959 11.1348 69.2959 11.6121V12.0022L68.0716 12.0728C66.9966 12.1392 66.3907 12.6082 66.3907 13.4216C66.3907 14.2476 67.0257 14.7747 67.8973 14.7747Z" fill="white"/>
<path d="M73.2123 14.7747C73.8348 14.7747 74.3619 14.48 74.6317 13.9861H74.7022V14.7H75.5572V8.41626H74.6649V10.8982H74.5985C74.3536 10.4001 73.8307 10.1055 73.2123 10.1055C72.0709 10.1055 71.3363 11.0103 71.3363 12.438C71.3363 13.8699 72.0626 14.7747 73.2123 14.7747ZM73.4654 10.9065C74.2125 10.9065 74.6815 11.5 74.6815 12.4421C74.6815 13.3884 74.2166 13.9736 73.4654 13.9736C72.7101 13.9736 72.2577 13.3967 72.2577 12.438C72.2577 11.4875 72.7142 10.9065 73.4654 10.9065Z" fill="white"/>
<path d="M81.3437 14.7871C82.6635 14.7871 83.4729 13.9031 83.4729 12.438C83.4729 10.9812 82.6594 10.093 81.3437 10.093C80.0239 10.093 79.2104 10.9812 79.2104 12.438C79.2104 13.9031 80.0197 14.7871 81.3437 14.7871ZM81.3437 13.9944C80.5676 13.9944 80.1318 13.4258 80.1318 12.438C80.1318 11.4585 80.5676 10.8857 81.3437 10.8857C82.1157 10.8857 82.5556 11.4585 82.5556 12.438C82.5556 13.4216 82.1157 13.9944 81.3437 13.9944Z" fill="white"/>
<path d="M84.6541 14.7H85.5464V12.0562C85.5464 11.3506 85.9656 10.9106 86.6255 10.9106C87.2854 10.9106 87.6008 11.2717 87.6008 11.998V14.7H88.4932V11.7739C88.4932 10.699 87.937 10.093 86.9285 10.093C86.2478 10.093 85.7996 10.396 85.5796 10.8982H85.5132V10.1802H84.6541V14.7Z" fill="white"/>
<path d="M92.6029 9.05542V10.2009H91.8849V10.9521H92.6029V13.5046C92.6029 14.3762 92.9972 14.7249 93.9891 14.7249C94.1634 14.7249 94.3294 14.7041 94.4747 14.6792V13.9363C94.3502 13.9487 94.2713 13.957 94.1344 13.957C93.6903 13.957 93.4952 13.7495 93.4952 13.2764V10.9521H94.4747V10.2009H93.4952V9.05542H92.6029Z" fill="white"/>
<path d="M95.6725 14.7H96.5648V12.0603C96.5648 11.3755 96.9716 10.9148 97.702 10.9148C98.3329 10.9148 98.6691 11.28 98.6691 12.0022V14.7H99.5614V11.7822C99.5614 10.7073 98.9679 10.0972 98.005 10.0972C97.3244 10.0972 96.8471 10.4001 96.6271 10.9065H96.5565V8.41626H95.6725V14.7Z" fill="white"/>
<path d="M102.78 10.8525C103.44 10.8525 103.872 11.3132 103.893 12.0229H101.61C101.66 11.3174 102.121 10.8525 102.78 10.8525ZM103.889 13.4797C103.723 13.8325 103.353 14.0276 102.814 14.0276C102.1 14.0276 101.639 13.5254 101.61 12.7327V12.6829H104.802V12.3716C104.802 10.9521 104.042 10.093 102.785 10.093C101.51 10.093 100.701 11.0103 100.701 12.4546C100.701 13.8989 101.494 14.7871 102.789 14.7871C103.822 14.7871 104.544 14.2891 104.748 13.4797H103.889Z" fill="white"/>
<path d="M24.77 20.3008C24.7916 18.6198 25.6944 17.0292 27.1265 16.1488C26.2231 14.8584 24.7098 14.0403 23.1354 13.9911C21.4561 13.8148 19.8282 14.9959 18.9725 14.9959C18.1002 14.9959 16.7827 14.0086 15.364 14.0378C13.5147 14.0975 11.7907 15.1489 10.891 16.7656C8.95705 20.1141 10.3996 25.0351 12.2522 27.7417C13.1791 29.0671 14.2624 30.5475 15.6799 30.495C17.0669 30.4375 17.585 29.6105 19.2593 29.6105C20.918 29.6105 21.4041 30.495 22.8503 30.4616C24.3387 30.4375 25.2764 29.1304 26.1708 27.7925C26.8368 26.8481 27.3492 25.8044 27.6892 24.7C25.9401 23.9602 24.772 22.2 24.77 20.3008Z" fill="white"/>
<path d="M22.0383 12.2111C22.8498 11.2369 23.2496 9.98469 23.1528 8.72046C21.913 8.85068 20.7677 9.44324 19.9452 10.3801C19.141 11.2954 18.7224 12.5255 18.8015 13.7415C20.0418 13.7542 21.2611 13.1777 22.0383 12.2111Z" fill="white"/>
</svg>
