<svg width="222" height="41" viewBox="0 0 222 41" fill="none" xmlns="http://www.w3.org/2000/svg">
<g clip-path="url(#clip0_9931_158654)">
<path d="M79.588 21.4637H63.7454C63.9533 23.101 64.4939 24.3575 65.4502 25.1952C66.4066 26.0329 67.6541 26.4518 69.2342 26.4518C71.6043 26.4518 73.1844 25.5379 74.0576 23.6722H79.0058C78.4653 25.6522 77.301 27.2133 75.5546 28.3937C73.8081 29.5741 71.6875 30.1452 69.151 30.1452C65.9908 30.1452 63.4543 29.2314 61.5416 27.3656C59.6288 25.4998 58.6309 23.0629 58.6309 20.0168C58.6309 16.9706 59.5872 14.4956 61.5 12.6679C63.4543 10.8022 65.9908 9.88831 69.0678 9.88831C72.2696 9.88831 74.8061 10.8402 76.6773 12.7822C78.5484 14.7241 79.5048 17.2372 79.5048 20.3595V21.4637H79.588ZM63.787 18.1891H74.4319C74.2239 16.7802 73.6418 15.6379 72.727 14.8002C71.8122 13.9625 70.6064 13.5437 69.1094 13.5437C66.0324 13.5437 64.286 15.1048 63.787 18.1891Z" fill="white"/>
<path d="M87.9444 26.528C85.3248 24.0149 83.9941 20.588 83.9941 16.3614C83.9941 12.0968 85.2832 8.6699 87.9028 6.15682C90.4809 3.64375 93.8906 2.38721 98.1735 2.38721C101.583 2.38721 104.494 3.2249 106.906 4.90028C109.317 6.57567 110.814 9.01259 111.396 12.173H105.783C105.284 10.4214 104.369 9.08875 103.038 8.1749C101.708 7.26105 100.086 6.80413 98.1319 6.80413C95.5538 6.80413 93.4747 7.64182 92.0194 9.35528C90.5224 11.0307 89.774 13.3914 89.774 16.3614C89.774 19.3695 90.5224 21.6922 91.9778 23.3676C93.4332 25.043 95.5122 25.8807 98.1319 25.8807C100.169 25.8807 101.874 25.3476 103.33 24.2434C104.785 23.1391 105.658 21.6161 105.949 19.6741H111.48C111.105 23.063 109.692 25.6903 107.113 27.5561C104.619 29.4218 101.583 30.3357 98.0903 30.3357C93.9321 30.2976 90.564 29.0411 87.9444 26.528Z" fill="white"/>
<path d="M116.721 29.7264V10.3453H121.877V29.7264H116.721ZM116.762 7.79412V3.3772H121.835V7.79412H116.762Z" fill="white"/>
<path d="M139.176 13.9245H134.976V24.3956C134.976 25.0048 135.143 25.4618 135.517 25.7283C135.891 25.9948 136.515 26.1091 137.388 26.1091H139.134V29.7264C138.012 29.8406 137.097 29.8787 136.432 29.8787C134.145 29.8787 132.44 29.4979 131.4 28.6983C130.361 27.8987 129.82 26.6421 129.82 24.9287V13.9245H126.535V10.3071H129.82V4.70984H134.935V10.3452H139.134V13.9245H139.176Z" fill="white"/>
<path d="M144.246 29.7264V10.3453H149.402V29.7264H144.246ZM144.288 7.79412V3.3772H149.361V7.79412H144.288Z" fill="white"/>
<path d="M172.565 26.033V29.7265H154.602V26.6042L162.959 16.9707C163.334 16.5519 163.833 16.0188 164.415 15.3715C164.997 14.7242 165.413 14.2673 165.621 14.0007C164.955 14.0388 163.5 14.0388 161.255 14.0388H154.768V10.3453H172.024V13.4296L163.666 23.063C163.292 23.4819 162.793 24.015 162.211 24.6623C161.629 25.3096 161.213 25.7665 161.005 26.033C161.67 25.995 163.126 25.995 165.371 25.995H172.565V26.033Z" fill="white"/>
<path d="M196.641 21.4637H180.798C181.006 23.101 181.547 24.3575 182.503 25.1952C183.459 26.0329 184.707 26.4518 186.287 26.4518C188.657 26.4518 190.237 25.5379 191.11 23.6722H196.059C195.518 25.6522 194.354 27.2133 192.607 28.3937C190.861 29.5741 188.74 30.1452 186.204 30.1452C183.044 30.1452 180.507 29.2314 178.594 27.3656C176.682 25.4998 175.684 23.0629 175.684 20.0168C175.684 16.9706 176.64 14.4956 178.553 12.6679C180.507 10.8022 183.044 9.88831 186.121 9.88831C189.322 9.88831 191.859 10.8402 193.73 12.7822C195.601 14.7241 196.558 17.2372 196.558 20.3595V21.4637H196.641ZM180.84 18.1891H191.443C191.235 16.7802 190.653 15.6379 189.738 14.8002C188.823 13.9625 187.618 13.5437 186.121 13.5437C183.085 13.5437 181.339 15.1048 180.84 18.1891Z" fill="white"/>
<path d="M219.052 11.716C220.382 12.9345 221.048 14.6479 221.048 16.8945V29.7264H215.892V17.656C215.892 15.2191 214.561 13.9625 211.9 13.9625C210.569 13.9625 209.488 14.3814 208.573 15.2572C207.658 16.1329 207.201 17.3133 207.201 18.8364V29.6883H202.045V10.3452H207.035V13.1248C208.656 10.9545 210.86 9.88831 213.646 9.88831C215.892 9.88831 217.721 10.4975 219.052 11.716Z" fill="white"/>
<mask id="mask0_9931_158654" style="mask-type:alpha" maskUnits="userSpaceOnUse" x="21" y="36" width="6" height="5">
<path fill-rule="evenodd" clip-rule="evenodd" d="M26.3823 40.6859H21.6836V36.3832H26.3823V40.6859Z" fill="white"/>
</mask>
<g mask="url(#mask0_9931_158654)">
<path fill-rule="evenodd" clip-rule="evenodd" d="M26.3876 38.5536C26.3876 39.734 25.3481 40.724 24.059 40.724C22.77 40.724 21.7305 39.772 21.7305 38.5536C21.7305 37.3732 22.77 36.3832 24.059 36.3832C25.3065 36.3832 26.3876 37.3351 26.3876 38.5536Z" fill="white"/>
</g>
<mask id="mask1_9931_158654" style="mask-type:alpha" maskUnits="userSpaceOnUse" x="0" y="10" width="5" height="5">
<path fill-rule="evenodd" clip-rule="evenodd" d="M0 14.7176V10.3768H4.65714V14.7176H0Z" fill="white"/>
</mask>
<g mask="url(#mask1_9931_158654)">
<path fill-rule="evenodd" clip-rule="evenodd" d="M4.65714 12.5472C4.65714 13.7276 3.6176 14.7176 2.32857 14.7176C1.03954 14.7176 0 13.7276 0 12.5472C0 11.3668 1.03954 10.3768 2.32857 10.3768C3.6176 10.3768 4.65714 11.3668 4.65714 12.5472Z" fill="white"/>
</g>
<path fill-rule="evenodd" clip-rule="evenodd" d="M40.665 8.1749C40.665 9.35529 39.6254 10.3453 38.3364 10.3453C37.0474 10.3453 36.0078 9.39336 36.0078 8.1749C36.0078 6.99452 37.0474 6.00452 38.3364 6.00452C39.6254 6.04259 40.665 6.99452 40.665 8.1749Z" fill="white"/>
<path d="M19.501 11.4874C16.8398 12.5536 14.2617 14.0767 12.0579 16.0186C9.85405 17.9605 7.94129 20.2451 6.65227 22.7963C6.02854 24.0528 5.52956 25.3855 5.36324 26.7563C5.19691 28.089 5.28007 29.4597 5.94538 30.6401L6.19487 31.0971L6.52752 31.5159L6.69385 31.7063L6.90176 31.8967L7.27599 32.2774C7.40073 32.3917 7.56706 32.5059 7.69181 32.5821C7.85813 32.6963 7.98288 32.8105 8.1492 32.8867L8.64818 33.1532L8.89767 33.3055L9.14716 33.4198C10.5609 34.029 12.1826 34.2955 13.8459 34.4098C13.9706 34.4098 14.0538 34.524 14.0538 34.6001C14.0538 34.7144 13.9706 34.7524 13.8459 34.7905C12.1826 34.9048 10.4362 34.8286 8.77293 34.3717L8.44027 34.2955L8.1492 34.1813L7.4839 33.9148C7.27599 33.8386 7.06808 33.7244 6.90176 33.6101C6.69385 33.4959 6.48594 33.4198 6.31961 33.3055L5.77905 32.9247L5.48798 32.7344L5.23849 32.5059L4.73951 32.049L4.3237 31.5159L4.15737 31.2494C4.11579 31.1732 4.03263 31.059 3.99105 30.9828L3.65839 30.4117C3.57523 30.2213 3.49207 30.0309 3.4089 29.8024C3.32574 29.6121 3.24258 29.3836 3.201 29.1932C3.07625 28.7363 2.95151 28.3174 2.90992 27.8986C2.86834 27.6701 2.82676 27.4797 2.82676 27.2513L2.78518 26.604C2.7436 24.9286 3.03467 23.2532 3.53365 21.6921C4.53161 18.5317 6.31961 15.6378 8.52344 13.0486C10.7273 10.4594 13.4301 8.17474 16.6318 6.38513C18.0872 5.54744 20.0415 5.96628 20.9563 7.29897C21.8711 8.63167 21.4137 10.4213 19.9584 11.259C19.792 11.3732 19.6257 11.4113 19.501 11.4874Z" fill="white"/>
<path d="M30.7707 22.3395C31.145 19.7122 31.0618 16.8945 30.3965 14.1529C29.7312 11.4114 28.6085 8.746 26.8621 6.42331C25.9889 5.281 24.9909 4.21485 23.8266 3.37715C22.6623 2.53946 21.3317 1.93023 19.8764 1.816L19.3358 1.77792L18.7952 1.816H18.5042L18.2963 1.89215L17.7557 2.00639C17.5894 2.04446 17.423 2.12062 17.2151 2.19677C17.0488 2.27292 16.8409 2.311 16.6746 2.38715L16.1756 2.65369L15.9261 2.76792L15.6766 2.92023C14.3876 3.71985 13.2649 4.86215 12.3085 6.08062C12.2254 6.15677 12.1006 6.19485 12.0174 6.11869C11.9343 6.08062 11.8927 5.96638 11.9343 5.89023C12.7243 4.51946 13.6391 3.22485 14.9282 2.12062L15.1776 1.93023L15.4271 1.73985L15.9677 1.35908C16.134 1.24485 16.3419 1.13062 16.5498 1.05446C16.7577 0.940231 16.9657 0.864078 17.1736 0.749847L17.8389 0.483308L18.1715 0.369078L18.5042 0.292924L19.2111 0.140616L19.9179 0.102539L20.2922 0.102539C20.4169 0.102539 20.5417 0.102539 20.6248 0.102539L21.3317 0.140616C21.5812 0.178693 21.7891 0.21677 22.0386 0.254847C22.2881 0.292924 22.496 0.331001 22.7039 0.407154C23.1613 0.521385 23.6187 0.635616 24.0345 0.826001C24.2424 0.902154 24.4503 0.978308 24.6582 1.09254L25.282 1.39715C26.9036 2.23485 28.2758 3.33908 29.4817 4.51946C31.8934 6.95639 33.6814 9.81215 34.9705 12.8964C36.2595 15.9806 36.9664 19.2552 37.008 22.6822C37.008 24.2814 35.6358 25.576 33.9309 25.576C32.1845 25.576 30.7707 24.3195 30.7707 22.7583C30.7707 22.6441 30.7707 22.4918 30.7707 22.3395Z" fill="white"/>
<path d="M14.8048 25.7283C17.0502 27.4037 19.7115 28.7745 22.6222 29.6883C25.4913 30.6022 28.6099 31.0972 31.6454 30.9829C33.1839 30.9068 34.6808 30.6783 36.053 30.2214C37.4252 29.7264 38.7142 29.041 39.5459 27.9749L39.8785 27.556L40.128 27.0991L40.2528 26.8706L40.3359 26.6422L40.5022 26.1472C40.5438 25.9949 40.5854 25.8045 40.627 25.6522C40.6686 25.4999 40.7102 25.3095 40.7102 25.1572L40.7517 24.6241V24.3575V24.091C40.6686 22.6441 40.2112 21.1972 39.5875 19.8264C39.5459 19.7122 39.5875 19.636 39.7122 19.5599C39.7954 19.5218 39.9201 19.5599 39.9617 19.636C40.8349 20.9306 41.5418 22.3776 41.916 23.9768L41.9992 24.2814L42.0408 24.586L42.0823 25.1952C42.1239 25.3856 42.0823 25.6141 42.0823 25.8045C42.0823 25.9949 42.0823 26.2233 42.0408 26.4137L41.916 27.0229L41.8329 27.3275L41.7081 27.6322L41.5002 28.2795L41.1676 28.8506L41.0012 29.1552C40.9596 29.2314 40.8765 29.3456 40.7933 29.4218L40.3775 29.9549C40.2112 30.1072 40.0864 30.2595 39.9201 30.4499C39.7538 30.6022 39.5875 30.7925 39.4211 30.9068C39.0885 31.1733 38.7142 31.4779 38.34 31.7064C38.1321 31.8206 37.9658 31.9729 37.7579 32.0491L37.1757 32.3537C35.554 33.1533 33.8076 33.6864 32.0612 33.991C28.5268 34.6002 24.9092 34.486 21.4163 33.9149C17.8819 33.3437 14.4306 32.1633 11.2288 30.4118C9.73188 29.6122 9.27448 27.8606 10.1477 26.4899C11.0209 25.1191 12.9337 24.7002 14.4306 25.4999C14.5553 25.5379 14.6801 25.6522 14.8048 25.7283Z" fill="white"/>
</g>
<defs>
<clipPath id="clip0_9931_158654">
<rect width="221.048" height="40.59" fill="white" transform="translate(0 0.102539)"/>
</clipPath>
</defs>
</svg>
